<svg width="20.000000" height="20.000000" viewBox="0 0 20 20" fill="none" xmlns="http://www.w3.org/2000/svg" xmlns:xlink="http://www.w3.org/1999/xlink">
	<desc>
			Created with Pixso.
	</desc>
	<defs>
		<clipPath id="clip91_1102">
			<rect id="menu (42) 1" width="20.000000" height="20.000000" fill="white" fill-opacity="0"/>
		</clipPath>
	</defs>
	<rect id="menu (42) 1" width="20.000000" height="20.000000" fill="#FFFFFF" fill-opacity="0"/>
	<g clip-path="url(#clip91_1102)">
		<path id="Vector" d="M18.24 2.38L6.44 2.38C5.47 2.38 4.68 3.17 4.68 4.14C4.68 5.11 5.47 5.89 6.44 5.89L18.24 5.89C19.21 5.89 20 5.11 20 4.14C20 3.17 19.21 2.38 18.24 2.38Z" fill="#FFFFFF" fill-opacity="1.000000" fill-rule="nonzero"/>
		<path id="Vector" d="M18.24 8.24L6.44 8.24C5.47 8.24 4.68 9.03 4.68 10C4.68 10.96 5.47 11.75 6.44 11.75L18.24 11.75C19.21 11.75 20 10.96 20 10C20 9.03 19.21 8.24 18.24 8.24Z" fill="#FFFFFF" fill-opacity="1.000000" fill-rule="nonzero"/>
		<path id="Vector" d="M18.24 14.1L6.44 14.1C5.47 14.1 4.68 14.89 4.68 15.85C4.68 16.82 5.47 17.61 6.44 17.61L18.24 17.61C19.21 17.61 20 16.82 20 15.85C20 14.89 19.21 14.1 18.24 14.1Z" fill="#FFFFFF" fill-opacity="1.000000" fill-rule="nonzero"/>
		<path id="Vector" d="M1.75 2.38C0.78 2.38 0 3.17 0 4.14C0 5.11 0.78 5.89 1.75 5.89C2.72 5.89 3.51 5.11 3.51 4.14C3.51 3.17 2.72 2.38 1.75 2.38Z" fill="#FFFFFF" fill-opacity="1.000000" fill-rule="nonzero"/>
		<path id="Vector" d="M1.75 8.24C0.78 8.24 0 9.03 0 10C0 10.96 0.78 11.75 1.75 11.75C2.72 11.75 3.51 10.96 3.51 10C3.51 9.03 2.72 8.24 1.75 8.24Z" fill="#FFFFFF" fill-opacity="1.000000" fill-rule="nonzero"/>
		<path id="Vector" d="M1.75 14.1C0.78 14.1 0 14.89 0 15.85C0 16.82 0.78 17.61 1.75 17.61C2.72 17.61 3.51 16.82 3.51 15.85C3.51 14.89 2.72 14.1 1.75 14.1Z" fill="#FFFFFF" fill-opacity="1.000000" fill-rule="nonzero"/>
	</g>
</svg>
