<svg width="28.000000" height="28.000000" viewBox="0 0 28 28" fill="none" xmlns="http://www.w3.org/2000/svg" xmlns:xlink="http://www.w3.org/1999/xlink">
	<desc>
			Created with Pixso.
	</desc>
	<defs>
		<clipPath id="clip16_92">
			<rect id="shopping-cart (6) 1" width="28.000000" height="28.000000" fill="white" fill-opacity="0"/>
		</clipPath>
		<linearGradient id="paint_linear_16_93_0" x1="6.082964" y1="-7.980015" x2="27.312910" y2="22.166655" gradientUnits="userSpaceOnUse">
			<stop stop-color="#5E3928"/>
			<stop offset="0.911458" stop-color="#E4A16F"/>
		</linearGradient>
		<linearGradient id="paint_linear_16_94_0" x1="6.872706" y1="21.653320" x2="10.500036" y2="28.000008" gradientUnits="userSpaceOnUse">
			<stop stop-color="#5E3928"/>
			<stop offset="0.911458" stop-color="#E4A16F"/>
		</linearGradient>
		<linearGradient id="paint_linear_16_95_0" x1="18.539331" y1="21.653320" x2="22.166664" y2="28.000008" gradientUnits="userSpaceOnUse">
			<stop stop-color="#5E3928"/>
			<stop offset="0.911458" stop-color="#E4A16F"/>
		</linearGradient>
	</defs>
	<rect id="shopping-cart (6) 1" width="28.000000" height="28.000000" fill="#FFFFFF" fill-opacity="0"/>
	<g clip-path="url(#clip16_92)">
		<path id="Vector" d="M26.4985 4.7565C26.1703 4.36269 25.7595 4.04594 25.2952 3.82878C24.8308 3.61163 24.3243 3.49937 23.8116 3.5L4.94897 3.5L4.90002 3.0905C4.79968 2.23932 4.39062 1.45453 3.75024 0.884888C3.10986 0.315262 2.28271 0.000396729 1.42566 0L1.16663 0C0.8573 0 0.560547 0.12291 0.341675 0.341705C0.122925 0.560501 0 0.857254 0 1.16667C0 1.47609 0.122925 1.77283 0.341675 1.99162C0.560547 2.21042 0.8573 2.33333 1.16663 2.33333L1.42566 2.33333C1.71143 2.33337 1.98718 2.43828 2.20081 2.62817C2.41431 2.81805 2.55078 3.07971 2.58411 3.36349L4.18945 17.0135C4.3562 18.4331 5.03821 19.7421 6.1062 20.692C7.17419 21.6419 8.55383 22.1667 9.98315 22.1667L22.1666 22.1667C22.4761 22.1667 22.7728 22.0437 22.9916 21.825C23.2104 21.6062 23.3334 21.3094 23.3334 21C23.3334 20.6906 23.2104 20.3938 22.9916 20.175C22.7728 19.9563 22.4761 19.8333 22.1666 19.8333L9.98315 19.8333C9.26111 19.8313 8.55725 19.606 7.96826 19.1882C7.37927 18.7705 6.93384 18.1808 6.69312 17.5L20.5999 17.5C21.9675 17.5001 23.2917 17.0196 24.3412 16.1425C25.3905 15.2654 26.0984 14.0475 26.3409 12.7015L27.2568 7.62184C27.3483 7.11784 27.3278 6.59991 27.1967 6.10475C27.0656 5.60957 26.8273 5.14929 26.4985 4.7565ZM24.9667 7.20767L24.0497 12.2873C23.9039 13.0958 23.4785 13.8273 22.8479 14.3537C22.2172 14.8801 21.4214 15.1679 20.5999 15.1667L6.32214 15.1667L5.22437 5.83333L23.8116 5.83333C23.983 5.83231 24.1526 5.86906 24.3081 5.94096C24.4637 6.01288 24.6016 6.11816 24.7118 6.24937C24.822 6.38058 24.9021 6.53447 24.946 6.70009C24.9901 6.86572 24.9972 7.03902 24.9667 7.20767Z" fill="url(#paint_linear_16_93_0)" fill-opacity="1.000000" fill-rule="nonzero"/>
		<path id="Vector" d="M10.5 25.6667C10.5 26.9553 9.45532 28 8.16675 28C6.87805 28 5.83337 26.9553 5.83337 25.6667C5.83337 24.378 6.87805 23.3333 8.16675 23.3333C9.45532 23.3333 10.5 24.378 10.5 25.6667Z" fill="url(#paint_linear_16_94_0)" fill-opacity="1.000000" fill-rule="evenodd"/>
		<path id="Vector" d="M22.1666 25.6667C22.1666 26.9553 21.1219 28 19.8334 28C18.5447 28 17.5 26.9553 17.5 25.6667C17.5 24.378 18.5447 23.3333 19.8334 23.3333C21.1219 23.3333 22.1666 24.378 22.1666 25.6667Z" fill="url(#paint_linear_16_95_0)" fill-opacity="1.000000" fill-rule="evenodd"/>
	</g>
</svg>
