<svg width="30.012085" height="26.370026" viewBox="0 0 30.0121 26.37" fill="none" xmlns="http://www.w3.org/2000/svg" xmlns:xlink="http://www.w3.org/1999/xlink">
	<desc>
			Created with Pixso.
	</desc>
	<defs/>
	<path id="Vector" d="M21.8811 0C20.4735 0.0218964 19.0967 0.41481 17.8895 1.13908C16.6824 1.86336 15.6877 2.89334 15.0061 4.125C14.3243 2.89334 13.3297 1.86336 12.1226 1.13908C10.9155 0.41481 9.53857 0.0218964 8.1311 0C5.88721 0.0974884 3.77319 1.07907 2.25073 2.73029C0.728394 4.38152 -0.0786133 6.56816 0.00610352 8.8125C0.00610352 14.4962 5.98853 20.7038 11.0061 24.9125C12.1263 25.8539 13.5427 26.37 15.0061 26.37C16.4694 26.37 17.8857 25.8539 19.0061 24.9125C24.0236 20.7038 30.0061 14.4962 30.0061 8.8125C30.0907 6.56816 29.2837 4.38152 27.7614 2.73029C26.2389 1.07907 24.1249 0.0974884 21.8811 0ZM17.3998 23C16.7297 23.5642 15.882 23.8736 15.0061 23.8736C14.1301 23.8736 13.2823 23.5642 12.6123 23C6.18982 17.6113 2.5061 12.4413 2.5061 8.8125C2.42065 7.2309 2.96399 5.67966 4.0177 4.49713C5.07153 3.31459 6.55005 2.59669 8.1311 2.5C9.71204 2.59669 11.1906 3.31459 12.2444 4.49713C13.2981 5.67966 13.8416 7.2309 13.7561 8.8125C13.7561 9.14401 13.8877 9.46196 14.1222 9.69638C14.3566 9.9308 14.6746 10.0625 15.0061 10.0625C15.3375 10.0625 15.6555 9.9308 15.8899 9.69638C16.1244 9.46196 16.2561 9.14401 16.2561 8.8125C16.1707 7.2309 16.714 5.67966 17.7677 4.49713C18.8215 3.31459 20.3 2.59669 21.8811 2.5C23.462 2.59669 24.9406 3.31459 25.9944 4.49713C27.0481 5.67966 27.5916 7.2309 27.5061 8.8125C27.5061 12.4413 23.8223 17.6113 17.3998 22.995L17.3998 23Z" fill="#0B3F37" fill-opacity="1.000000" fill-rule="nonzero"/>
</svg>
