<svg width="30.000000" height="30.000000" viewBox="0 0 30 30" fill="none" xmlns="http://www.w3.org/2000/svg" xmlns:xlink="http://www.w3.org/1999/xlink">
	<desc>
			Created with Pixso.
	</desc>
	<defs>
		<clipPath id="clip16_80">
			<rect id="user (12) 1" width="30.000000" height="30.000000" fill="white" fill-opacity="0"/>
		</clipPath>
	</defs>
	<rect id="user (12) 1" width="30.000000" height="30.000000" fill="#FFFFFF" fill-opacity="0"/>
	<g clip-path="url(#clip16_80)">
		<path id="Vector" d="M15 15C16.4834 15 17.9333 14.5601 19.1667 13.736C20.4001 12.9119 21.3615 11.7406 21.9291 10.3701C22.4967 8.99968 22.6453 7.49168 22.3558 6.03682C22.0665 4.58197 21.3522 3.24559 20.3033 2.1967C19.2544 1.14781 17.9181 0.433502 16.4631 0.144119C15.0083 -0.145279 13.5004 0.00325012 12.1299 0.570908C10.7594 1.13857 9.58813 2.09985 8.76404 3.33322C7.93982 4.56659 7.5 6.01665 7.5 7.5C7.50195 9.48851 8.29285 11.395 9.69885 12.8011C11.105 14.2072 13.0115 14.998 15 15ZM15 2.5C15.9889 2.5 16.9556 2.79324 17.7778 3.34265C18.6001 3.89206 19.241 4.67296 19.6194 5.58658C19.9978 6.50021 20.0968 7.50555 19.9039 8.47545C19.7111 9.44536 19.2347 10.3363 18.5355 11.0355C17.8363 11.7348 16.9453 12.211 15.9755 12.4039C15.0055 12.5968 14.0002 12.4978 13.0865 12.1194C12.173 11.741 11.3921 11.1001 10.8427 10.2778C10.2932 9.45561 10 8.48891 10 7.5C10 6.17392 10.5267 4.90215 11.4645 3.96446C12.4021 3.02679 13.674 2.5 15 2.5Z" fill="#0B3F37" fill-opacity="1.000000" fill-rule="nonzero"/>
		<path id="Vector" d="M15 17.5C12.0173 17.5033 9.15771 18.6896 7.04871 20.7987C4.93958 22.9078 3.7533 25.7673 3.75 28.75C3.75 29.0815 3.88171 29.3995 4.11609 29.6339C4.35059 29.8683 4.66846 30 5 30C5.33154 30 5.64941 29.8683 5.88391 29.6339C6.11829 29.3995 6.25 29.0815 6.25 28.75C6.25 26.4294 7.17188 24.2038 8.81287 22.5628C10.4537 20.9219 12.6793 20 15 20C17.3207 20 19.5463 20.9219 21.1871 22.5628C22.8281 24.2038 23.75 26.4294 23.75 28.75C23.75 29.0815 23.8817 29.3995 24.1161 29.6339C24.3506 29.8683 24.6685 30 25 30C25.3315 30 25.6494 29.8683 25.8839 29.6339C26.1183 29.3995 26.25 29.0815 26.25 28.75C26.2467 25.7673 25.0603 22.9078 22.9513 20.7987C20.8423 18.6896 17.9827 17.5033 15 17.5Z" fill="#0B3F37" fill-opacity="1.000000" fill-rule="nonzero"/>
	</g>
</svg>
